<svg width="96" height="96" viewBox="0 0 96 96" fill="none" xmlns="http://www.w3.org/2000/svg">
<path d="M62 36H34V61H62V36Z" fill="#9B594D"/>
<path d="M57 38H37V57H57V38Z" fill="#E78D7B"/>
<path d="M50 32H46V37H50V32Z" fill="#E78D7B"/>
<path d="M33 30H29V34H33V30Z" fill="#E78D7B"/>
<path d="M33 34H31V38H33V34Z" fill="#8E7366"/>
<path d="M35 49H31V53H35V49Z" fill="#9B594D"/>
<path d="M35 53H33V57H35V53Z" fill="#8E7366"/>
<path d="M37 64H33V68H37V64Z" fill="#9B594D"/>
<path d="M37 68H35V72H37V68Z" fill="#8E7366"/>
<path d="M50 32H46V36H50V32Z" fill="#E78D7B"/>
<path d="M50 36H48V40H50V36Z" fill="#8E7366"/>
<path d="M52 64H48V68H52V64Z" fill="#9B594D"/>
<path d="M52 68H50V72H52V68Z" fill="#8E7366"/>
<path d="M71 32H67V36H71V32Z" fill="#9B594D"/>
<path d="M71 36H69V40H71V36Z" fill="#8E7366"/>
<path d="M67 47H63V51H67V47Z" fill="#E78D7B"/>
<path d="M69 66H65V70H69V66Z" fill="#9B594D"/>
<path d="M34 43H28V46H34V43Z" fill="#9B594D"/>
<path d="M70 53H63V56H70V53Z" fill="#E78D7B"/>
<path d="M36 32H31V40H36V32Z" fill="#9B594D"/>
<path d="M43 27H39V36H43V27Z" fill="#E78D7B"/>
<path d="M62 30H58V38H62V30Z" fill="#9B594D"/>
<path d="M72 38H64V43H72V38Z" fill="#E78D7B"/>
<path d="M53 62H48V70H53V62Z" fill="#9B594D"/>
<path d="M37 57H30V61H37V57Z" fill="#9B594D"/>
</svg>
