<svg width="96" height="96" viewBox="0 0 96 96" fill="none" xmlns="http://www.w3.org/2000/svg">
<path d="M48 36H28V42H48V36Z" fill="#172459"/>
<path d="M26 38H21V40H26V38Z" fill="#0A1627"/>
<path d="M22 54H16V56H22V54Z" fill="#4B6396"/>
<path d="M58 52H44V54H58V52Z" fill="#7396B8"/>
<path d="M48 70H28V74H48V70Z" fill="#BCC7CC"/>
<path d="M76 46H66V50H76V46Z" fill="#E78D7B"/>
<path d="M64 48H59V50H64V48Z" fill="#0A1627"/>
<path d="M65 47H25V49H65V47Z" fill="#7396B8"/>
<path d="M76 63H74V65H76V63Z" fill="#E78D7B"/>
<path d="M55 73H53V75H55V73Z" fill="#7F9494"/>
<path d="M53 37H51V39H53V37Z" fill="#7F9494"/>
<path d="M24 50H22V52H24V50Z" fill="#7F9494"/>
<path d="M31 57H29V59H31V57Z" fill="#7F9494"/>
</svg>
