<svg width="96" height="96" viewBox="0 0 96 96" fill="none" xmlns="http://www.w3.org/2000/svg">
<path d="M76 48H56V54H76V48Z" fill="#7396B8"/>
<path d="M54 50H49V52H54V50Z" fill="#0A1627"/>
<path d="M60 34H40V36H60V34Z" fill="#BCC7CC"/>
<path d="M46 36H26V42H46V36Z" fill="#E78D7B"/>
<path d="M76 34H46V36H76V34Z" fill="#657785"/>
<path d="M58 38H52V44H58V38Z" fill="#172459"/>
<path d="M50 40H45V42H50V40Z" fill="#0A1627"/>
<path d="M52 42H22V44H52V42Z" fill="#4B6396"/>
<path d="M74 34H44V36H74V34Z" fill="#7396B8"/>
<path d="M62 24H52V30H62V24Z" fill="#BCC7CC"/>
<path d="M30 70H24V72H30V70Z" fill="#E78D7B"/>
<path d="M22 72H17V74H22V72Z" fill="#0A1627"/>
<path d="M74 64H64V66H74V64Z" fill="#657785"/>
<path d="M20 48H14V50H20V48Z" fill="#172459"/>
<path d="M76 58H46V60H76V58Z" fill="#4B6396"/>
<path d="M74 32H60V36H74V32Z" fill="#7396B8"/>
<path d="M58 34H53V36H58V34Z" fill="#0A1627"/>
<path d="M34 66H14V70H34V66Z" fill="#BCC7CC"/>
<path d="M24 52H18V58H24V52Z" fill="#E78D7B"/>
<path d="M78 66H64V72H78V66Z" fill="#657785"/>
<path d="M50 52H20V58H50V52Z" fill="#172459"/>
<path d="M18 54H13V56H18V54Z" fill="#0A1627"/>
<path d="M75 47H35V49H75V47Z" fill="#E4CECC"/>
<path d="M33 62H31V64H33V62Z" fill="#E78D7B"/>
<path d="M48 28H46V30H48V28Z" fill="#7F9494"/>
<path d="M75 40H73V42H75V40Z" fill="#7F9494"/>
<path d="M50 72H48V74H50V72Z" fill="#7F9494"/>
<path d="M72 17H70V19H72V17Z" fill="#7F9494"/>
</svg>
